<?xml version="1.0" encoding="UTF-8"?>
<!DOCTYPE svg PUBLIC "-//W3C//DTD SVG 1.1//EN" "http://www.w3.org/Graphics/SVG/1.1/DTD/svg11.dtd">
<!-- Creator: CorelDRAW -->
<svg xmlns="http://www.w3.org/2000/svg" xml:space="preserve" width="477.498mm" height="28.0662mm" version="1.1" style="shape-rendering:geometricPrecision; text-rendering:geometricPrecision; image-rendering:optimizeQuality; fill-rule:evenodd; clip-rule:evenodd"
viewBox="0 0 12594.8 740.29"
 xmlns:xlink="http://www.w3.org/1999/xlink"
 xmlns:xodm="http://www.corel.com/coreldraw/odm/2003">
 <defs>
  <style type="text/css">
   <![CDATA[
    .str0 {stroke:#2B2B2A;stroke-width:5.28;stroke-miterlimit:22.9256}
    .fil8 {fill:none}
    .fil2 {fill:#2B2B2A}
    .fil5 {fill:#EC6A31}
    .fil4 {fill:#E09D0B}
    .fil3 {fill:#FBB519}
    .fil7 {fill:white;fill-rule:nonzero}
    .fil1 {fill:#2B2B2A;fill-rule:nonzero}
    .fil9 {fill:#2B2B2A;fill-rule:nonzero}
    .fil6 {fill:#D1930C;fill-rule:nonzero}
    .fil0 {fill:url(#id5)}
   ]]>
  </style>
     <clipPath id="id0">
      <path d="M665.42 216.05l66.55 0 28.12 384.18 -123.42 0 28.75 -384.18z"/>
     </clipPath>
     <clipPath id="id1">
      <path d="M699.26 122.45c15.33,0 27.76,12.51 27.76,27.94 0,15.43 -12.43,27.94 -27.76,27.94 -15.33,0 -27.76,-12.51 -27.76,-27.94 0,-15.43 12.43,-27.94 27.76,-27.94z"/>
     </clipPath>
     <clipPath id="id2">
      <path d="M809.42 58.4c6.77,0 12.25,5.52 12.25,12.33 0,6.81 -5.48,12.33 -12.25,12.33 -6.77,0 -12.25,-5.52 -12.25,-12.33 0,-6.81 5.49,-12.33 12.25,-12.33z"/>
     </clipPath>
     <clipPath id="id3">
      <path d="M869.11 108.49c4.06,0 7.36,3.32 7.36,7.4 0,4.09 -3.29,7.4 -7.36,7.4 -4.06,0 -7.36,-3.32 -7.36,-7.4 0,-4.09 3.29,-7.4 7.36,-7.4z"/>
     </clipPath>
     <clipPath id="id4">
      <path d="M952.41 44.55c4.62,0 8.36,3.76 8.36,8.41 0,4.64 -3.74,8.41 -8.36,8.41 -4.61,0 -8.36,-3.76 -8.36,-8.41 0,-4.64 3.74,-8.41 8.36,-8.41z"/>
     </clipPath>
  <linearGradient id="id5" gradientUnits="userSpaceOnUse" x1="-0" y1="370.15" x2="12594.8" y2="370.15">
   <stop offset="0" style="stop-opacity:1; stop-color:white"/>
   <stop offset="1" style="stop-opacity:1; stop-color:#727272"/>
  </linearGradient>
 </defs>
 <g id="Layer_x0020_1">
  <metadata id="CorelCorpID_0Corel-Layer"/>
  <g id="_105553530848608">
   <rect class="fil0" x="-0" y="0" width="12594.8" height="740.29"/>
   <g>
    <path class="fil1" d="M1014.06 600.23l-231.43 0 0 -326.57 66.82 0 0 260.2 164.61 0 0 66.38zm266.83 0l-231.43 0 0 -326.57 231.43 0 0 65.93 -164.61 0 0 64.16 81.87 0 0 66.38 -81.87 0 0 63.72 164.61 0 0 66.38z"/>
    <polygon class="fil2" points="656.05,216.05 740.09,216.05 768.08,600.23 628.37,600.23 "/>
    <polygon class="fil3" points="665.42,216.05 731.96,216.05 760.09,600.23 636.67,600.23 "/>
    <g style="clip-path:url(#id0)">
     <g>
      <polygon id="1" class="fil4" points="655.11,211.9 671.5,211.9 648.18,610.53 630.42,610.53 "/>
      <polygon class="fil4" points="727.02,211.9 740.4,211.9 771.05,609.34 749.84,610.2 "/>
      <rect class="fil5" x="320.46" y="-34.9" width="267.4" height="238.61"/>
      <path class="fil6" d="M696.4 600.23c0,0.59 0.22,1.12 0.57,1.51 1.38,1.58 4.03,0.61 4.03,-1.51l0 -9.18c0,-0.59 -0.22,-1.12 -0.57,-1.51 -1.38,-1.58 -4.03,-0.61 -4.03,1.51l0 9.18zm4.6 -390.55c0,-0.59 -0.22,-1.12 -0.57,-1.51 -1.38,-1.58 -4.03,-0.61 -4.03,1.51l-0 0.07c0,0.59 0.22,1.12 0.57,1.51 1.38,1.58 4.03,0.61 4.03,-1.51l0 -0.07zm-0 13.86c0,-0.59 -0.22,-1.12 -0.57,-1.51 -1.38,-1.59 -4.03,-0.61 -4.03,1.51l0 9.19c0,0.59 0.22,1.12 0.57,1.51 1.38,1.58 4.03,0.61 4.03,-1.51l0 -9.19zm0 22.97c0,-0.59 -0.22,-1.12 -0.57,-1.51 -1.38,-1.58 -4.03,-0.61 -4.03,1.51l0 9.19c0,0.59 0.22,1.12 0.57,1.51 1.38,1.58 4.03,0.61 4.03,-1.51l0 -9.19zm0 22.97c0,-0.59 -0.22,-1.12 -0.57,-1.51 -1.38,-1.58 -4.03,-0.61 -4.03,1.51l0 9.19c0,0.59 0.22,1.12 0.57,1.51 1.38,1.59 4.03,0.61 4.03,-1.51l0 -9.19zm0 22.97c0,-0.59 -0.22,-1.12 -0.57,-1.51 -1.38,-1.58 -4.03,-0.61 -4.03,1.51l0 9.19c0,0.59 0.22,1.12 0.57,1.51 1.38,1.58 4.03,0.61 4.03,-1.51l0 -9.19zm0 22.97c0,-0.59 -0.22,-1.12 -0.57,-1.51 -1.38,-1.58 -4.03,-0.61 -4.03,1.51l0 9.19c0,0.59 0.22,1.12 0.57,1.51 1.38,1.58 4.03,0.61 4.03,-1.51l0 -9.19zm0 22.97c0,-0.59 -0.22,-1.12 -0.57,-1.51 -1.38,-1.58 -4.03,-0.61 -4.03,1.51l0 9.19c0,0.59 0.22,1.12 0.57,1.51 1.38,1.58 4.03,0.61 4.03,-1.51l0 -9.19zm0 22.97c0,-0.59 -0.22,-1.12 -0.57,-1.51 -1.38,-1.58 -4.03,-0.61 -4.03,1.51l0 9.19c0,0.59 0.22,1.12 0.57,1.51 1.38,1.58 4.03,0.61 4.03,-1.51l0 -9.19zm0 22.97c0,-0.59 -0.22,-1.12 -0.57,-1.51 -1.38,-1.58 -4.03,-0.61 -4.03,1.51l0 9.19c0,0.59 0.22,1.12 0.57,1.51 1.38,1.58 4.03,0.61 4.03,-1.51l0 -9.19zm0 22.97c0,-0.59 -0.22,-1.12 -0.57,-1.51 -1.38,-1.58 -4.03,-0.61 -4.03,1.51l0 9.19c0,0.59 0.22,1.12 0.57,1.51 1.38,1.58 4.03,0.61 4.03,-1.51l0 -9.19zm0 22.97c0,-0.59 -0.22,-1.12 -0.57,-1.51 -1.38,-1.58 -4.03,-0.61 -4.03,1.51l0 9.19c0,0.59 0.22,1.12 0.57,1.51 1.38,1.58 4.03,0.61 4.03,-1.51l0 -9.19zm0 22.97c0,-0.59 -0.22,-1.12 -0.57,-1.51 -1.38,-1.58 -4.03,-0.61 -4.03,1.51l0 9.19c0,0.59 0.22,1.12 0.57,1.51 1.38,1.58 4.03,0.61 4.03,-1.51l0 -9.19zm0 22.97c0,-0.59 -0.22,-1.12 -0.57,-1.51 -1.38,-1.59 -4.03,-0.61 -4.03,1.51l0 9.19c0,0.59 0.22,1.12 0.57,1.51 1.38,1.58 4.03,0.61 4.03,-1.51l0 -9.19zm0 22.97c0,-0.59 -0.22,-1.12 -0.57,-1.51 -1.38,-1.59 -4.03,-0.61 -4.03,1.51l0 9.19c0,0.59 0.22,1.12 0.57,1.51 1.38,1.58 4.03,0.61 4.03,-1.51l0 -9.19zm0 22.97c0,-0.59 -0.22,-1.12 -0.57,-1.51 -1.38,-1.58 -4.03,-0.61 -4.03,1.51l0 9.19c0,0.59 0.22,1.12 0.57,1.51 1.38,1.59 4.03,0.61 4.03,-1.51l0 -9.19zm0 22.97c0,-0.59 -0.22,-1.12 -0.57,-1.51 -1.38,-1.58 -4.03,-0.61 -4.03,1.51l0 9.19c0,0.59 0.22,1.12 0.57,1.51 1.38,1.59 4.03,0.61 4.03,-1.51l0 -9.19zm0 22.97c0,-0.59 -0.22,-1.12 -0.57,-1.51 -1.38,-1.58 -4.03,-0.61 -4.03,1.51l0 9.19c0,0.59 0.22,1.12 0.57,1.51 1.38,1.58 4.03,0.61 4.03,-1.51l0 -9.19z"/>
      <path class="fil7" d="M695.61 600.09c0,0.59 0.22,1.12 0.57,1.51 1.38,1.58 4.03,0.61 4.03,-1.51l0 -9.19c0,-0.59 -0.22,-1.12 -0.57,-1.51 -1.38,-1.58 -4.03,-0.61 -4.03,1.51l0 9.19zm4.59 -390.55c0,-0.59 -0.22,-1.12 -0.57,-1.51 -1.38,-1.58 -4.02,-0.61 -4.02,1.51l-0 0.07c0,0.59 0.22,1.12 0.57,1.51 1.38,1.58 4.03,0.61 4.03,-1.51l0 -0.07zm0 13.86c0,-0.59 -0.22,-1.12 -0.57,-1.51 -1.38,-1.58 -4.03,-0.61 -4.03,1.51l0 9.19c0,0.59 0.22,1.12 0.57,1.51 1.38,1.58 4.03,0.61 4.03,-1.51l0 -9.19zm0 22.97c0,-0.59 -0.22,-1.12 -0.57,-1.51 -1.38,-1.58 -4.03,-0.61 -4.03,1.51l0 9.19c0,0.59 0.22,1.12 0.57,1.51 1.38,1.58 4.03,0.61 4.03,-1.51l0 -9.19zm0 22.97c0,-0.59 -0.22,-1.12 -0.57,-1.51 -1.38,-1.58 -4.03,-0.61 -4.03,1.51l0 9.19c0,0.59 0.22,1.12 0.57,1.51 1.38,1.58 4.03,0.61 4.03,-1.51l0 -9.19zm0 22.97c0,-0.59 -0.22,-1.12 -0.57,-1.51 -1.38,-1.59 -4.03,-0.61 -4.03,1.51l0 9.19c0,0.59 0.22,1.12 0.57,1.51 1.38,1.58 4.03,0.61 4.03,-1.51l0 -9.19zm0 22.97c0,-0.59 -0.22,-1.12 -0.57,-1.51 -1.38,-1.58 -4.03,-0.61 -4.03,1.51l0 9.19c0,0.59 0.22,1.12 0.57,1.51 1.38,1.58 4.03,0.61 4.03,-1.51l0 -9.19zm0 22.97c0,-0.59 -0.22,-1.12 -0.57,-1.51 -1.38,-1.58 -4.03,-0.61 -4.03,1.51l0 9.19c0,0.59 0.22,1.12 0.57,1.51 1.38,1.59 4.03,0.61 4.03,-1.51l0 -9.19zm0 22.97c0,-0.59 -0.22,-1.12 -0.57,-1.51 -1.38,-1.58 -4.03,-0.61 -4.03,1.51l0 9.19c0,0.59 0.22,1.12 0.57,1.51 1.38,1.58 4.03,0.61 4.03,-1.51l0 -9.19zm0 22.97c0,-0.59 -0.22,-1.12 -0.57,-1.51 -1.38,-1.58 -4.03,-0.61 -4.03,1.51l0 9.19c0,0.59 0.22,1.12 0.57,1.51 1.38,1.58 4.03,0.61 4.03,-1.51l0 -9.19zm0 22.97c0,-0.59 -0.22,-1.12 -0.57,-1.51 -1.38,-1.58 -4.03,-0.61 -4.03,1.51l0 9.19c0,0.59 0.22,1.12 0.57,1.51 1.38,1.58 4.03,0.61 4.03,-1.51l0 -9.19zm0 22.97c0,-0.59 -0.22,-1.12 -0.57,-1.51 -1.38,-1.58 -4.03,-0.61 -4.03,1.51l0 9.19c0,0.59 0.22,1.12 0.57,1.51 1.38,1.58 4.03,0.61 4.03,-1.51l0 -9.19zm0 22.97c0,-0.59 -0.22,-1.12 -0.57,-1.51 -1.38,-1.58 -4.03,-0.61 -4.03,1.51l0 9.19c0,0.59 0.22,1.12 0.57,1.51 1.38,1.58 4.03,0.61 4.03,-1.51l0 -9.19zm0 22.97c0,-0.59 -0.22,-1.12 -0.57,-1.51 -1.38,-1.58 -4.03,-0.61 -4.03,1.51l0 9.19c0,0.59 0.22,1.12 0.57,1.51 1.38,1.58 4.03,0.61 4.03,-1.51l0 -9.19zm0 22.97c0,-0.59 -0.22,-1.12 -0.57,-1.51 -1.38,-1.58 -4.03,-0.61 -4.03,1.51l0 9.19c0,0.59 0.22,1.12 0.57,1.51 1.38,1.58 4.03,0.61 4.03,-1.51l0 -9.19zm0 22.97c0,-0.59 -0.22,-1.12 -0.57,-1.51 -1.38,-1.58 -4.03,-0.61 -4.03,1.51l0 9.19c0,0.59 0.22,1.12 0.57,1.51 1.38,1.58 4.03,0.61 4.03,-1.51l0 -9.19zm0 22.97c0,-0.59 -0.22,-1.12 -0.57,-1.51 -1.38,-1.59 -4.03,-0.61 -4.03,1.51l0 9.19c0,0.59 0.22,1.12 0.57,1.51 1.38,1.58 4.03,0.61 4.03,-1.51l0 -9.19zm0 22.97c0,-0.59 -0.22,-1.12 -0.57,-1.51 -1.38,-1.59 -4.03,-0.61 -4.03,1.51l0 9.19c0,0.59 0.22,1.12 0.57,1.51 1.38,1.58 4.03,0.61 4.03,-1.51l0 -9.19z"/>
      <rect class="fil4 str0" x="587.86" y="-572.12" width="549.73" height="642.31" rx="116.93" ry="116.93"/>
     </g>
    </g>
    <polygon class="fil8" points="665.42,216.05 731.96,216.05 760.09,600.23 636.67,600.23 "/>
    <path class="fil2" d="M699.26 110.81c21.72,0 39.32,17.72 39.32,39.58 0,21.86 -17.61,39.58 -39.32,39.58 -21.72,0 -39.32,-17.72 -39.32,-39.58 0,-21.86 17.61,-39.58 39.32,-39.58z"/>
    <path class="fil3" d="M699.26 122.45c15.33,0 27.76,12.51 27.76,27.94 0,15.43 -12.43,27.94 -27.76,27.94 -15.33,0 -27.76,-12.51 -27.76,-27.94 0,-15.43 12.43,-27.94 27.76,-27.94z"/>
    <g style="clip-path:url(#id1)">
     <g>
      <path id="1" class="fil4" d="M672.26 143.83c25.42,-10.54 43.67,-5.53 54.75,15.03 14,-42.45 -53.21,-59.11 -54.75,-15.03z"/>
     </g>
    </g>
    <path class="fil8" d="M699.26 122.45c15.33,0 27.76,12.51 27.76,27.94 0,15.43 -12.43,27.94 -27.76,27.94 -15.33,0 -27.76,-12.51 -27.76,-27.94 0,-15.43 12.43,-27.94 27.76,-27.94z"/>
    <path class="fil1" d="M729.7 136.97c-1.94,1.48 -4.71,1.11 -6.2,-0.83 -1.48,-1.94 -1.11,-4.71 0.83,-6.19l79.37 -60.43c1.94,-1.48 4.71,-1.11 6.19,0.83 1.48,1.94 1.11,4.71 -0.83,6.19l-79.36 60.43z"/>
    <path class="fil1" d="M866.1 106.32c1.94,1.48 2.31,4.25 0.83,6.2 -1.48,1.94 -4.25,2.31 -6.19,0.83l-48.34 -36.81c-1.94,-1.48 -2.31,-4.25 -0.83,-6.19 1.48,-1.94 4.25,-2.31 6.2,-0.83l48.34 36.81z"/>
    <path class="fil2" d="M809.42 53.26c9.58,0 17.35,7.82 17.35,17.47 0,9.65 -7.77,17.47 -17.35,17.47 -9.59,0 -17.36,-7.82 -17.36,-17.47 0,-9.65 7.77,-17.47 17.36,-17.47z"/>
    <path class="fil3" d="M809.42 58.4c6.77,0 12.25,5.52 12.25,12.33 0,6.81 -5.48,12.33 -12.25,12.33 -6.77,0 -12.25,-5.52 -12.25,-12.33 0,-6.81 5.49,-12.33 12.25,-12.33z"/>
    <g style="clip-path:url(#id2)">
     <g>
      <path id="1" class="fil4" d="M806.53 83.51c-3.87,-0.37 -5.34,-1.51 -4.41,-3.41 10.26,-0.54 16.89,-5.13 19.88,-13.78 1.19,11.76 -3.96,17.49 -15.47,17.18z"/>
      <rect class="fil4 str0" x="397.4" y="-601.27" width="549.73" height="642.31" rx="116.93" ry="116.93"/>
     </g>
    </g>
    <path class="fil8" d="M809.42 58.4c6.77,0 12.25,5.52 12.25,12.33 0,6.81 -5.48,12.33 -12.25,12.33 -6.77,0 -12.25,-5.52 -12.25,-12.33 0,-6.81 5.49,-12.33 12.25,-12.33z"/>
    <path class="fil1" d="M874.79 116.78c-1.94,1.48 -4.71,1.11 -6.19,-0.83 -1.48,-1.94 -1.11,-4.71 0.83,-6.2l78.65 -59.89c1.94,-1.48 4.71,-1.11 6.19,0.83 1.48,1.94 1.11,4.71 -0.83,6.19l-78.65 59.89z"/>
    <path class="fil2" d="M869.11 105.4c5.76,0 10.42,4.7 10.42,10.49 0,5.79 -4.67,10.49 -10.42,10.49 -5.76,0 -10.42,-4.7 -10.42,-10.49 0,-5.79 4.67,-10.49 10.42,-10.49z"/>
    <path class="fil3" d="M869.11 108.49c4.06,0 7.36,3.32 7.36,7.4 0,4.09 -3.29,7.4 -7.36,7.4 -4.06,0 -7.36,-3.32 -7.36,-7.4 0,-4.09 3.29,-7.4 7.36,-7.4z"/>
    <g style="clip-path:url(#id3)">
     <g>
      <path id="1" class="fil4" d="M870.4 107.88c-5.04,-0.43 -7.92,1.21 -8.64,4.92 6.12,-1.68 11.32,-0.47 15.6,3.63 0.86,-4.55 -1.46,-7.4 -6.95,-8.56z"/>
      <rect class="fil4 str0" x="397.4" y="-601.27" width="549.73" height="642.31" rx="116.93" ry="116.93"/>
     </g>
    </g>
    <path class="fil8" d="M869.11 108.49c4.06,0 7.36,3.32 7.36,7.4 0,4.09 -3.29,7.4 -7.36,7.4 -4.06,0 -7.36,-3.32 -7.36,-7.4 0,-4.09 3.29,-7.4 7.36,-7.4z"/>
    <path class="fil2" d="M952.41 41.04c6.54,0 11.84,5.33 11.84,11.91 0,6.58 -5.3,11.91 -11.84,11.91 -6.54,0 -11.84,-5.33 -11.84,-11.91 0,-6.58 5.3,-11.91 11.84,-11.91z"/>
    <path class="fil3" d="M952.41 44.55c4.62,0 8.36,3.76 8.36,8.41 0,4.64 -3.74,8.41 -8.36,8.41 -4.61,0 -8.36,-3.76 -8.36,-8.41 0,-4.64 3.74,-8.41 8.36,-8.41z"/>
    <g style="clip-path:url(#id4)">
     <g>
      <path id="1" class="fil4" d="M948.13 64.87c7.26,-6.59 9.34,-14.48 6.23,-23.66 14.45,3.83 13.29,29.08 -6.23,23.66z"/>
      <rect class="fil4 str0" x="397.4" y="-601.27" width="549.73" height="642.31" rx="116.93" ry="116.93"/>
     </g>
    </g>
    <path class="fil8" d="M952.41 44.55c4.62,0 8.36,3.76 8.36,8.41 0,4.64 -3.74,8.41 -8.36,8.41 -4.61,0 -8.36,-3.76 -8.36,-8.41 0,-4.64 3.74,-8.41 8.36,-8.41z"/>
    <path class="fil1" d="M295 630.16l7.89 0 11.68 34.37 11.59 -34.37 7.8 0 0 40.66 -5.23 0 0 -23.99c0,-0.83 0.02,-2.21 0.06,-4.13 0.03,-1.92 0.05,-3.97 0.05,-6.17l-11.59 34.29 -5.45 0 -11.68 -34.29 0 1.24c0,0.99 0.03,2.51 0.08,4.56 0.05,2.04 0.07,3.54 0.07,4.49l0 23.99 -5.26 0 0 -40.66zm51.67 11.01l0 19.68c0,1.52 0.24,2.76 0.72,3.71 0.89,1.77 2.54,2.66 4.96,2.66 3.47,0 5.83,-1.55 7.08,-4.65 0.68,-1.66 1.02,-3.94 1.02,-6.84l0 -14.56 4.98 0 0 29.64 -4.71 0 0.06 -4.37c-0.64,1.12 -1.45,2.08 -2.41,2.85 -1.9,1.55 -4.2,2.32 -6.92,2.32 -4.22,0 -7.1,-1.41 -8.63,-4.23 -0.83,-1.52 -1.25,-3.54 -1.25,-6.06l0 -20.15 5.09 0zm26.67 -11.01l4.99 0 0 40.66 -4.99 0 0 -40.66zm13.45 2.74l5.04 0 0 8.27 4.73 0 0 4.07 -4.73 0 0 19.35c0,1.03 0.35,1.73 1.06,2.08 0.39,0.2 1.03,0.3 1.94,0.3 0.24,0 0.5,-0.01 0.78,-0.02 0.27,-0.01 0.59,-0.03 0.96,-0.07l0 3.93c-0.57,0.16 -1.16,0.28 -1.79,0.36 -0.61,0.08 -1.28,0.11 -2,0.11 -2.32,0 -3.9,-0.6 -4.73,-1.79 -0.83,-1.19 -1.25,-2.74 -1.25,-4.64l0 -19.62 -4.01 0 0 -4.07 4.01 0 0 -8.27zm14.75 8.41l5.06 0 0 29.5 -5.06 0 0 -29.5zm0 -11.15l5.06 0 0 5.65 -5.06 0 0 -5.65zm11.29 22.31l13.9 0 0 5.12 -13.9 0 0 -5.12zm20.7 -22.31l7.89 0 11.68 34.37 11.59 -34.37 7.8 0 0 40.66 -5.23 0 0 -23.99c0,-0.83 0.02,-2.21 0.06,-4.13 0.03,-1.92 0.05,-3.97 0.05,-6.17l-11.59 34.29 -5.45 0 -11.68 -34.29 0 1.24c0,0.99 0.03,2.51 0.08,4.56 0.05,2.04 0.07,3.54 0.07,4.49l0 23.99 -5.26 0 0 -40.66zm58.46 37.44c3.3,0 5.56,-1.24 6.79,-3.75 1.23,-2.5 1.84,-5.28 1.84,-8.34 0,-2.77 -0.44,-5.02 -1.33,-6.75 -1.4,-2.73 -3.82,-4.1 -7.25,-4.1 -3.05,0 -5.26,1.16 -6.64,3.49 -1.39,2.32 -2.08,5.13 -2.08,8.41 0,3.15 0.69,5.78 2.08,7.89 1.38,2.11 3.57,3.15 6.58,3.15zm0.19 -27.29c3.83,0 7.06,1.27 9.69,3.82 2.64,2.54 3.96,6.29 3.96,11.23 0,4.78 -1.16,8.73 -3.48,11.85 -2.33,3.12 -5.94,4.67 -10.82,4.67 -4.07,0 -7.31,-1.38 -9.71,-4.14 -2.4,-2.76 -3.6,-6.46 -3.6,-11.11 0,-4.98 1.26,-8.95 3.79,-11.9 2.53,-2.96 5.92,-4.43 10.18,-4.43zm22.72 16.03c0,3.18 0.67,5.83 2.02,7.97 1.34,2.13 3.49,3.2 6.47,3.2 2.31,0 4.2,-0.99 5.69,-2.98 1.48,-1.98 2.23,-4.83 2.23,-8.53 0,-3.75 -0.76,-6.52 -2.29,-8.32 -1.53,-1.8 -3.42,-2.69 -5.68,-2.69 -2.5,0 -4.54,0.95 -6.1,2.87 -1.56,1.92 -2.33,4.74 -2.33,8.47zm7.5 -15.69c2.27,0 4.16,0.48 5.69,1.43 0.89,0.56 1.9,1.52 3.02,2.91l0 -14.97 4.78 0 0 40.79 -4.48 0 0 -4.13c-1.16,1.83 -2.54,3.15 -4.13,3.96 -1.59,0.81 -3.4,1.22 -5.45,1.22 -3.29,0 -6.16,-1.39 -8.58,-4.17 -2.42,-2.78 -3.63,-6.47 -3.63,-11.08 0,-4.32 1.11,-8.06 3.31,-11.22 2.2,-3.17 5.35,-4.74 9.46,-4.74zm24.67 22.28c0,1.45 0.53,2.58 1.58,3.4 1.05,0.83 2.29,1.25 3.74,1.25 1.75,0 3.45,-0.41 5.09,-1.22 2.77,-1.35 4.15,-3.55 4.15,-6.61l0 -4.01c-0.61,0.39 -1.4,0.72 -2.35,0.97 -0.95,0.26 -1.9,0.45 -2.82,0.55l-3.01 0.39c-1.8,0.25 -3.17,0.62 -4.07,1.14 -1.53,0.86 -2.29,2.25 -2.29,4.15zm12.06 -10.07c1.14,-0.15 1.92,-0.63 2.31,-1.45 0.22,-0.44 0.33,-1.08 0.33,-1.91 0,-1.69 -0.6,-2.93 -1.81,-3.7 -1.21,-0.76 -2.94,-1.15 -5.2,-1.15 -2.6,0 -4.44,0.7 -5.53,2.11 -0.61,0.78 -1.01,1.93 -1.19,3.46l-4.66 0c0.09,-3.66 1.28,-6.2 3.56,-7.62 2.28,-1.43 4.92,-2.14 7.93,-2.14 3.49,0 6.32,0.66 8.5,1.99 2.15,1.33 3.23,3.39 3.23,6.2l0 17.08c0,0.52 0.1,0.93 0.32,1.24 0.22,0.31 0.66,0.47 1.34,0.47 0.22,0 0.47,-0.02 0.75,-0.04 0.27,-0.03 0.58,-0.07 0.89,-0.12l0 3.68c-0.78,0.22 -1.36,0.36 -1.77,0.41 -0.41,0.05 -0.96,0.08 -1.66,0.08 -1.72,0 -2.97,-0.6 -3.74,-1.82 -0.41,-0.65 -0.69,-1.56 -0.86,-2.74 -1.01,1.33 -2.47,2.48 -4.37,3.46 -1.9,0.97 -4,1.46 -6.29,1.46 -2.75,0 -4.99,-0.83 -6.73,-2.5 -1.75,-1.67 -2.62,-3.76 -2.62,-6.26 0,-2.75 0.86,-4.88 2.58,-6.4 1.71,-1.51 3.97,-2.45 6.76,-2.8l7.93 -0.99zm15.77 -22.7l4.99 0 0 40.66 -4.99 0 0 -40.66zm30.11 0l5.57 0 0 40.66 -5.57 0 0 -40.66zm13.83 11.01l4.73 0 0 4.21c1.4,-1.74 2.88,-2.99 4.45,-3.74 1.57,-0.76 3.32,-1.13 5.23,-1.13 4.2,0 7.05,1.46 8.52,4.4 0.81,1.61 1.22,3.9 1.22,6.89l0 19.01 -5.06 0 0 -18.69c0,-1.8 -0.26,-3.26 -0.8,-4.36 -0.88,-1.84 -2.48,-2.77 -4.82,-2.77 -1.18,0 -2.14,0.12 -2.9,0.36 -1.37,0.41 -2.57,1.21 -3.6,2.43 -0.83,0.98 -1.37,1.99 -1.61,3.03 -0.26,1.05 -0.38,2.53 -0.38,4.47l0 15.53 -4.98 0 0 -29.64zm32.5 -8.27l5.04 0 0 8.27 4.73 0 0 4.07 -4.73 0 0 19.35c0,1.03 0.35,1.73 1.06,2.08 0.39,0.2 1.03,0.3 1.94,0.3 0.24,0 0.5,-0.01 0.78,-0.02 0.27,-0.01 0.59,-0.03 0.96,-0.07l0 3.93c-0.57,0.16 -1.16,0.28 -1.79,0.36 -0.61,0.08 -1.28,0.11 -2,0.11 -2.32,0 -3.9,-0.6 -4.73,-1.79 -0.83,-1.19 -1.25,-2.74 -1.25,-4.64l0 -19.62 -4.01 0 0 -4.07 4.01 0 0 -8.27zm27.08 7.61c2.11,0 4.15,0.49 6.12,1.48 1.97,0.98 3.48,2.26 4.51,3.83 1,1.5 1.66,3.24 1.99,5.23 0.29,1.37 0.44,3.54 0.44,6.54l-21.73 0c0.09,3 0.8,5.41 2.13,7.24 1.33,1.81 3.38,2.72 6.17,2.72 2.6,0 4.68,-0.86 6.22,-2.57 0.89,-0.99 1.52,-2.14 1.89,-3.46l4.9 0c-0.12,1.09 -0.56,2.29 -1.28,3.64 -0.73,1.33 -1.55,2.43 -2.45,3.28 -1.52,1.47 -3.39,2.46 -5.62,2.98 -1.2,0.29 -2.55,0.45 -4.07,0.45 -3.7,0 -6.82,-1.34 -9.38,-4.03 -2.56,-2.68 -3.84,-6.44 -3.84,-11.28 0,-4.76 1.29,-8.63 3.87,-11.59 2.58,-2.98 5.96,-4.46 10.13,-4.46zm7.94 13.12c-0.2,-2.17 -0.67,-3.88 -1.41,-5.18 -1.37,-2.4 -3.65,-3.6 -6.84,-3.6 -2.29,0 -4.2,0.82 -5.75,2.48 -1.55,1.65 -2.37,3.75 -2.47,6.3l16.46 0zm21.69 -12.98c2.32,0 4.35,0.57 6.09,1.71 0.94,0.65 1.9,1.59 2.87,2.82l0 -3.73 4.6 0 0 26.95c0,3.77 -0.56,6.73 -1.66,8.91 -2.07,4.03 -5.97,6.03 -11.7,6.03 -3.19,0 -5.88,-0.72 -8.06,-2.14 -2.18,-1.42 -3.4,-3.66 -3.66,-6.7l5.07 0c0.24,1.33 0.72,2.35 1.43,3.07 1.13,1.11 2.9,1.66 5.31,1.66 3.83,0 6.32,-1.35 7.5,-4.04 0.71,-1.59 1.03,-4.42 0.97,-8.5 -0.99,1.52 -2.19,2.65 -3.6,3.38 -1.41,0.74 -3.26,1.11 -5.56,1.11 -3.21,0 -6.02,-1.14 -8.43,-3.42 -2.41,-2.28 -3.61,-6.05 -3.61,-11.31 0,-4.96 1.21,-8.83 3.64,-11.62 2.43,-2.79 5.35,-4.18 8.79,-4.18zm8.96 15.22c0,-3.67 -0.75,-6.39 -2.27,-8.16 -1.51,-1.78 -3.44,-2.66 -5.78,-2.66 -3.51,0 -5.9,1.64 -7.2,4.93 -0.68,1.75 -1.02,4.04 -1.02,6.88 0,3.34 0.68,5.89 2.03,7.63 1.35,1.74 3.17,2.61 5.47,2.61 3.58,0 6.09,-1.62 7.55,-4.84 0.81,-1.82 1.22,-3.96 1.22,-6.4zm12.22 -14.7l4.73 0 0 5.12c0.39,-0.99 1.34,-2.21 2.85,-3.64 1.51,-1.43 3.26,-2.14 5.23,-2.14 0.08,0 0.25,0.01 0.47,0.03 0.22,0.02 0.6,0.06 1.13,0.11l0 5.25c-0.29,-0.06 -0.57,-0.09 -0.82,-0.1 -0.25,-0.02 -0.52,-0.03 -0.81,-0.03 -2.51,0 -4.44,0.8 -5.78,2.42 -1.35,1.61 -2.02,3.47 -2.02,5.57l0 17.05 -4.99 0 0 -29.64zm22.56 21.76c0,1.45 0.53,2.58 1.58,3.4 1.05,0.83 2.29,1.25 3.74,1.25 1.75,0 3.45,-0.41 5.09,-1.22 2.77,-1.35 4.15,-3.55 4.15,-6.61l0 -4.01c-0.61,0.39 -1.4,0.72 -2.35,0.97 -0.95,0.26 -1.9,0.45 -2.82,0.55l-3.01 0.39c-1.8,0.25 -3.17,0.62 -4.07,1.14 -1.53,0.86 -2.29,2.25 -2.29,4.15zm12.06 -10.07c1.14,-0.15 1.92,-0.63 2.31,-1.45 0.22,-0.44 0.33,-1.08 0.33,-1.91 0,-1.69 -0.6,-2.93 -1.81,-3.7 -1.21,-0.76 -2.94,-1.15 -5.2,-1.15 -2.6,0 -4.44,0.7 -5.53,2.11 -0.61,0.78 -1.01,1.93 -1.19,3.46l-4.66 0c0.09,-3.66 1.28,-6.2 3.56,-7.62 2.28,-1.43 4.92,-2.14 7.93,-2.14 3.49,0 6.32,0.66 8.5,1.99 2.15,1.33 3.23,3.39 3.23,6.2l0 17.08c0,0.52 0.1,0.93 0.32,1.24 0.22,0.31 0.66,0.47 1.34,0.47 0.22,0 0.47,-0.02 0.75,-0.04 0.27,-0.03 0.58,-0.07 0.89,-0.12l0 3.68c-0.78,0.22 -1.36,0.36 -1.77,0.41 -0.41,0.05 -0.96,0.08 -1.66,0.08 -1.72,0 -2.97,-0.6 -3.74,-1.82 -0.41,-0.65 -0.69,-1.56 -0.86,-2.74 -1.01,1.33 -2.47,2.48 -4.37,3.46 -1.9,0.97 -4,1.46 -6.29,1.46 -2.75,0 -4.99,-0.83 -6.73,-2.5 -1.75,-1.67 -2.62,-3.76 -2.62,-6.26 0,-2.75 0.86,-4.88 2.58,-6.4 1.71,-1.51 3.97,-2.45 6.76,-2.8l7.93 -0.99zm16.63 -19.96l5.04 0 0 8.27 4.73 0 0 4.07 -4.73 0 0 19.35c0,1.03 0.35,1.73 1.06,2.08 0.39,0.2 1.03,0.3 1.94,0.3 0.24,0 0.5,-0.01 0.78,-0.02 0.27,-0.01 0.59,-0.03 0.96,-0.07l0 3.93c-0.57,0.16 -1.16,0.28 -1.79,0.36 -0.61,0.08 -1.28,0.11 -2,0.11 -2.32,0 -3.9,-0.6 -4.73,-1.79 -0.83,-1.19 -1.25,-2.74 -1.25,-4.64l0 -19.62 -4.01 0 0 -4.07 4.01 0 0 -8.27zm27.08 7.61c2.11,0 4.15,0.49 6.12,1.48 1.97,0.98 3.48,2.26 4.51,3.83 1,1.5 1.66,3.24 1.99,5.23 0.29,1.37 0.44,3.54 0.44,6.54l-21.73 0c0.09,3 0.8,5.41 2.13,7.24 1.33,1.81 3.38,2.72 6.17,2.72 2.6,0 4.68,-0.86 6.22,-2.57 0.89,-0.99 1.52,-2.14 1.89,-3.46l4.9 0c-0.12,1.09 -0.56,2.29 -1.28,3.64 -0.73,1.33 -1.55,2.43 -2.45,3.28 -1.52,1.47 -3.39,2.46 -5.62,2.98 -1.2,0.29 -2.55,0.45 -4.07,0.45 -3.7,0 -6.82,-1.34 -9.38,-4.03 -2.56,-2.68 -3.84,-6.44 -3.84,-11.28 0,-4.76 1.29,-8.63 3.87,-11.59 2.58,-2.98 5.96,-4.46 10.13,-4.46zm7.94 13.12c-0.2,-2.17 -0.67,-3.88 -1.41,-5.18 -1.37,-2.4 -3.65,-3.6 -6.84,-3.6 -2.29,0 -4.2,0.82 -5.75,2.48 -1.55,1.65 -2.37,3.75 -2.47,6.3l16.46 0zm14.39 2.71c0,3.18 0.67,5.83 2.02,7.97 1.34,2.13 3.49,3.2 6.47,3.2 2.31,0 4.2,-0.99 5.69,-2.98 1.48,-1.98 2.23,-4.83 2.23,-8.53 0,-3.75 -0.76,-6.52 -2.29,-8.32 -1.53,-1.8 -3.42,-2.69 -5.68,-2.69 -2.5,0 -4.54,0.95 -6.1,2.87 -1.56,1.92 -2.33,4.74 -2.33,8.47zm7.5 -15.69c2.27,0 4.16,0.48 5.69,1.43 0.89,0.56 1.9,1.52 3.02,2.91l0 -14.97 4.78 0 0 40.79 -4.48 0 0 -4.13c-1.16,1.83 -2.54,3.15 -4.13,3.96 -1.59,0.81 -3.4,1.22 -5.45,1.22 -3.29,0 -6.16,-1.39 -8.58,-4.17 -2.42,-2.78 -3.63,-6.47 -3.63,-11.08 0,-4.32 1.11,-8.06 3.31,-11.22 2.2,-3.17 5.35,-4.74 9.46,-4.74zm37.26 -10.5l5.51 0 0 35.81 20.59 0 0 4.85 -26.1 0 0 -40.66zm42.61 37.44c3.3,0 5.56,-1.24 6.79,-3.75 1.23,-2.5 1.84,-5.28 1.84,-8.34 0,-2.77 -0.44,-5.02 -1.33,-6.75 -1.4,-2.73 -3.82,-4.1 -7.25,-4.1 -3.05,0 -5.26,1.16 -6.64,3.49 -1.39,2.32 -2.08,5.13 -2.08,8.41 0,3.15 0.69,5.78 2.08,7.89 1.38,2.11 3.57,3.15 6.58,3.15zm0.19 -27.29c3.83,0 7.06,1.27 9.69,3.82 2.64,2.54 3.96,6.29 3.96,11.23 0,4.78 -1.16,8.73 -3.48,11.85 -2.33,3.12 -5.94,4.67 -10.82,4.67 -4.07,0 -7.31,-1.38 -9.71,-4.14 -2.4,-2.76 -3.6,-6.46 -3.6,-11.11 0,-4.98 1.26,-8.95 3.79,-11.9 2.53,-2.96 5.92,-4.43 10.18,-4.43zm30.02 0.34c2.32,0 4.35,0.57 6.09,1.71 0.94,0.65 1.9,1.59 2.87,2.82l0 -3.73 4.6 0 0 26.95c0,3.77 -0.56,6.73 -1.66,8.91 -2.07,4.03 -5.97,6.03 -11.7,6.03 -3.19,0 -5.88,-0.72 -8.06,-2.14 -2.18,-1.42 -3.4,-3.66 -3.66,-6.7l5.07 0c0.24,1.33 0.72,2.35 1.43,3.07 1.13,1.11 2.9,1.66 5.31,1.66 3.83,0 6.32,-1.35 7.5,-4.04 0.71,-1.59 1.03,-4.42 0.97,-8.5 -0.99,1.52 -2.19,2.65 -3.6,3.38 -1.41,0.74 -3.26,1.11 -5.56,1.11 -3.21,0 -6.02,-1.14 -8.43,-3.42 -2.41,-2.28 -3.61,-6.05 -3.61,-11.31 0,-4.96 1.21,-8.83 3.64,-11.62 2.43,-2.79 5.35,-4.18 8.79,-4.18zm8.96 15.22c0,-3.67 -0.75,-6.39 -2.27,-8.16 -1.51,-1.78 -3.44,-2.66 -5.78,-2.66 -3.51,0 -5.9,1.64 -7.2,4.93 -0.68,1.75 -1.02,4.04 -1.02,6.88 0,3.34 0.68,5.89 2.03,7.63 1.35,1.74 3.17,2.61 5.47,2.61 3.58,0 6.09,-1.62 7.55,-4.84 0.81,-1.82 1.22,-3.96 1.22,-6.4zm12.09 -14.56l5.06 0 0 29.5 -5.06 0 0 -29.5zm0 -11.15l5.06 0 0 5.65 -5.06 0 0 -5.65zm15.55 31.36c0.15,1.65 0.57,2.93 1.25,3.82 1.26,1.61 3.43,2.41 6.53,2.41 1.84,0 3.47,-0.41 4.87,-1.21 1.41,-0.8 2.11,-2.04 2.11,-3.72 0,-1.28 -0.57,-2.24 -1.69,-2.9 -0.72,-0.41 -2.13,-0.88 -4.26,-1.42l-3.96 -0.99c-2.52,-0.63 -4.39,-1.33 -5.59,-2.11 -2.14,-1.35 -3.21,-3.21 -3.21,-5.59 0,-2.81 1.01,-5.07 3.03,-6.8 2.02,-1.74 4.74,-2.61 8.15,-2.61 4.47,0 7.68,1.31 9.65,3.93 1.24,1.66 1.84,3.46 1.8,5.38l-4.71 0c-0.09,-1.12 -0.49,-2.15 -1.19,-3.08 -1.14,-1.31 -3.13,-1.97 -5.95,-1.97 -1.88,0 -3.31,0.36 -4.28,1.09 -0.97,0.72 -1.45,1.66 -1.45,2.84 0,1.3 0.64,2.33 1.92,3.11 0.74,0.46 1.82,0.86 3.26,1.21l3.29 0.8c3.58,0.87 5.98,1.71 7.2,2.52 1.94,1.28 2.9,3.28 2.9,6.01 0,2.64 -1,4.91 -3,6.83 -2,1.92 -5.05,2.88 -9.14,2.88 -4.41,0 -7.53,-1 -9.37,-3 -1.83,-2 -2.82,-4.48 -2.95,-7.43l4.79 0zm26.37 -28.62l5.04 0 0 8.27 4.73 0 0 4.07 -4.73 0 0 19.35c0,1.03 0.35,1.73 1.06,2.08 0.39,0.2 1.03,0.3 1.94,0.3 0.24,0 0.5,-0.01 0.78,-0.02 0.27,-0.01 0.59,-0.03 0.96,-0.07l0 3.93c-0.57,0.16 -1.16,0.28 -1.79,0.36 -0.61,0.08 -1.28,0.11 -2,0.11 -2.32,0 -3.9,-0.6 -4.73,-1.79 -0.83,-1.19 -1.25,-2.74 -1.25,-4.64l0 -19.62 -4.01 0 0 -4.07 4.01 0 0 -8.27zm14.75 8.41l5.06 0 0 29.5 -5.06 0 0 -29.5zm0 -11.15l5.06 0 0 5.65 -5.06 0 0 -5.65zm24.02 10.16c3.34,0 6.06,0.81 8.14,2.44 2.1,1.62 3.36,4.42 3.78,8.39l-4.84 0c-0.29,-1.82 -0.97,-3.34 -2.02,-4.55 -1.05,-1.21 -2.74,-1.81 -5.06,-1.81 -3.17,0 -5.44,1.55 -6.81,4.65 -0.89,2.01 -1.33,4.5 -1.33,7.44 0,2.98 0.63,5.47 1.89,7.5 1.26,2.03 3.23,3.05 5.92,3.05 2.07,0 3.7,-0.63 4.91,-1.9 1.2,-1.27 2.04,-2.99 2.5,-5.19l4.84 0c-0.56,3.93 -1.94,6.8 -4.15,8.61 -2.22,1.82 -5.05,2.73 -8.49,2.73 -3.88,0 -6.97,-1.42 -9.28,-4.25 -2.31,-2.83 -3.46,-6.37 -3.46,-10.61 0,-5.2 1.26,-9.26 3.79,-12.16 2.53,-2.9 5.75,-4.34 9.66,-4.34zm19.87 21.21c0.15,1.65 0.57,2.93 1.25,3.82 1.26,1.61 3.43,2.41 6.53,2.41 1.84,0 3.47,-0.41 4.87,-1.21 1.41,-0.8 2.11,-2.04 2.11,-3.72 0,-1.28 -0.57,-2.24 -1.69,-2.9 -0.72,-0.41 -2.13,-0.88 -4.26,-1.42l-3.96 -0.99c-2.52,-0.63 -4.39,-1.33 -5.59,-2.11 -2.14,-1.35 -3.21,-3.21 -3.21,-5.59 0,-2.81 1.01,-5.07 3.03,-6.8 2.02,-1.74 4.74,-2.61 8.15,-2.61 4.47,0 7.68,1.31 9.65,3.93 1.24,1.66 1.84,3.46 1.8,5.38l-4.71 0c-0.09,-1.12 -0.49,-2.15 -1.19,-3.08 -1.14,-1.31 -3.13,-1.97 -5.95,-1.97 -1.88,0 -3.31,0.36 -4.28,1.09 -0.97,0.72 -1.45,1.66 -1.45,2.84 0,1.3 0.64,2.33 1.92,3.11 0.74,0.46 1.82,0.86 3.26,1.21l3.29 0.8c3.58,0.87 5.98,1.71 7.2,2.52 1.94,1.28 2.9,3.28 2.9,6.01 0,2.64 -1,4.91 -3,6.83 -2,1.92 -5.05,2.88 -9.14,2.88 -4.41,0 -7.53,-1 -9.37,-3 -1.83,-2 -2.82,-4.48 -2.95,-7.43l4.79 0zm42.31 -31.36l29.63 0 0 4.99 -24.27 0 0 12.34 22.45 0 0 4.71 -22.45 0 0 13.78 24.68 0 0 4.85 -30.05 0 0 -40.66zm36.61 11.01l4.73 0 0 4.21c1.4,-1.74 2.88,-2.99 4.45,-3.74 1.57,-0.76 3.32,-1.13 5.23,-1.13 4.2,0 7.05,1.46 8.52,4.4 0.81,1.61 1.22,3.9 1.22,6.89l0 19.01 -5.06 0 0 -18.69c0,-1.8 -0.26,-3.26 -0.8,-4.36 -0.88,-1.84 -2.48,-2.77 -4.82,-2.77 -1.18,0 -2.14,0.12 -2.9,0.36 -1.37,0.41 -2.57,1.21 -3.6,2.43 -0.83,0.98 -1.37,1.99 -1.61,3.03 -0.26,1.05 -0.38,2.53 -0.38,4.47l0 15.53 -4.98 0 0 -29.64zm41.97 -0.52c2.32,0 4.35,0.57 6.09,1.71 0.94,0.65 1.9,1.59 2.87,2.82l0 -3.73 4.6 0 0 26.95c0,3.77 -0.56,6.73 -1.66,8.91 -2.07,4.03 -5.97,6.03 -11.7,6.03 -3.19,0 -5.88,-0.72 -8.06,-2.14 -2.18,-1.42 -3.4,-3.66 -3.66,-6.7l5.07 0c0.24,1.33 0.72,2.35 1.43,3.07 1.13,1.11 2.9,1.66 5.31,1.66 3.83,0 6.32,-1.35 7.5,-4.04 0.71,-1.59 1.03,-4.42 0.97,-8.5 -0.99,1.52 -2.19,2.65 -3.6,3.38 -1.41,0.74 -3.26,1.11 -5.56,1.11 -3.21,0 -6.02,-1.14 -8.43,-3.42 -2.41,-2.28 -3.61,-6.05 -3.61,-11.31 0,-4.96 1.21,-8.83 3.64,-11.62 2.43,-2.79 5.35,-4.18 8.79,-4.18zm8.96 15.22c0,-3.67 -0.75,-6.39 -2.27,-8.16 -1.51,-1.78 -3.44,-2.66 -5.78,-2.66 -3.51,0 -5.9,1.64 -7.2,4.93 -0.68,1.75 -1.02,4.04 -1.02,6.88 0,3.34 0.68,5.89 2.03,7.63 1.35,1.74 3.17,2.61 5.47,2.61 3.58,0 6.09,-1.62 7.55,-4.84 0.81,-1.82 1.22,-3.96 1.22,-6.4zm12.09 -14.56l5.06 0 0 29.5 -5.06 0 0 -29.5zm0 -11.15l5.06 0 0 5.65 -5.06 0 0 -5.65zm12.59 11.01l4.73 0 0 4.21c1.4,-1.74 2.88,-2.99 4.45,-3.74 1.57,-0.76 3.32,-1.13 5.23,-1.13 4.2,0 7.05,1.46 8.52,4.4 0.81,1.61 1.22,3.9 1.22,6.89l0 19.01 -5.06 0 0 -18.69c0,-1.8 -0.26,-3.26 -0.8,-4.36 -0.88,-1.84 -2.48,-2.77 -4.82,-2.77 -1.18,0 -2.14,0.12 -2.9,0.36 -1.37,0.41 -2.57,1.21 -3.6,2.43 -0.83,0.98 -1.37,1.99 -1.61,3.03 -0.26,1.05 -0.38,2.53 -0.38,4.47l0 15.53 -4.98 0 0 -29.64zm43.85 -0.66c2.11,0 4.15,0.49 6.12,1.48 1.97,0.98 3.48,2.26 4.51,3.83 1,1.5 1.66,3.24 1.99,5.23 0.29,1.37 0.44,3.54 0.44,6.54l-21.73 0c0.09,3 0.8,5.41 2.13,7.24 1.33,1.81 3.38,2.72 6.17,2.72 2.6,0 4.68,-0.86 6.22,-2.57 0.89,-0.99 1.52,-2.14 1.89,-3.46l4.9 0c-0.12,1.09 -0.56,2.29 -1.28,3.64 -0.73,1.33 -1.55,2.43 -2.45,3.28 -1.52,1.47 -3.39,2.46 -5.62,2.98 -1.2,0.29 -2.55,0.45 -4.07,0.45 -3.7,0 -6.82,-1.34 -9.38,-4.03 -2.56,-2.68 -3.84,-6.44 -3.84,-11.28 0,-4.76 1.29,-8.63 3.87,-11.59 2.58,-2.98 5.96,-4.46 10.13,-4.46zm7.94 13.12c-0.2,-2.17 -0.67,-3.88 -1.41,-5.18 -1.37,-2.4 -3.65,-3.6 -6.84,-3.6 -2.29,0 -4.2,0.82 -5.75,2.48 -1.55,1.65 -2.37,3.75 -2.47,6.3l16.46 0z"/>
    <polygon class="fil9" points="610.79,593.56 556.64,593.56 553.78,363.67 452.89,510.78 352.73,368.68 352.01,593.56 295,593.56 295,271.37 353.72,271.37 452.89,414.91 553.23,271.37 610.79,271.37 "/>
   </g>
  </g>
 </g>
</svg>
